<svg width="362" height="269" viewBox="0 0 362 269" fill="none" xmlns="http://www.w3.org/2000/svg">
<path d="M1.08276 133.875L44.0828 63.8746L64.0828 58.8746L89.0828 81.9279L115.083 0.874588L229.083 99.8746V135.875L325.083 63.8746L292.083 141.875H319.083L361.083 268.229L177.083 239.875L143.083 257.875L133.814 239.207L115.083 251.875C95.4161 208.875 56.0828 122.131 56.0828 119.156L1.08276 133.875Z" fill="white"/>
<path d="M44.0828 63.8746L1.08276 133.875L56.0828 119.156M44.0828 63.8746L72.0828 114.875M44.0828 63.8746L64.0828 58.8746L89.0828 81.9279M72.0828 114.875L143.083 257.875M72.0828 114.875L56.0828 119.156M143.083 257.875L155.083 208.875M143.083 257.875L177.083 239.875M155.083 208.875L177.083 239.875M155.083 208.875L217.083 171.111M155.083 208.875L186.083 171.375M177.083 239.875L361.083 268.229M265.083 141.875L217.083 171.111M265.083 141.875L229.083 135.875M265.083 141.875H292.083M361.083 268.229L319.083 141.875H292.083M361.083 268.229L217.083 171.111M229.083 135.875L217.083 133.875L207.583 145.367M229.083 135.875L325.083 63.8746L292.083 141.875M229.083 135.875V99.8746L115.083 0.874588M56.0828 119.156C56.0828 122.131 95.4161 208.875 115.083 251.875L133.814 239.207M186.083 171.375L89.0828 81.9279M186.083 171.375L198.083 156.858L207.583 145.367M115.083 0.874588L89.0828 81.9279M115.083 0.874588L187.072 149.37M207.583 145.367L187.072 149.37M166.562 153.373L187.072 149.37" stroke="black"/>
</svg>
